REM DIRINDEX 1\2\4,1\2\5,1\3\6,1\3\7,1\3\8
REM DIRNAME cjc094,folder01,folder02,folder03,folder04,folder05,folder06,folder07
TITLE ""
FILE "LV4_076_WORDS.mp3" MP3
  TRACK 01 AUDIO
    TITLE "0:"
    INDEX 01 00:00:00
  TRACK 02 AUDIO
    TITLE "6:cjc094_2665"
    INDEX 01 00:00:05
  TRACK 03 AUDIO
    TITLE "0:"
    INDEX 01 00:01:46
  TRACK 04 AUDIO
    TITLE "7:cjc094_2666"
    INDEX 01 00:02:26
  TRACK 05 AUDIO
    TITLE "0:"
    INDEX 01 00:03:19
  TRACK 06 AUDIO
    TITLE "8:cjc094_2667"
    INDEX 01 00:03:33
  TRACK 07 AUDIO
    TITLE "0:"
    INDEX 01 00:04:11
  TRACK 08 AUDIO
    TITLE "7:cjc094_2668"
    INDEX 01 00:04:58
  TRACK 09 AUDIO
    TITLE "0:"
    INDEX 01 00:05:67
  TRACK 10 AUDIO
    TITLE "8:cjc094_2669"
    INDEX 01 00:06:08
  TRACK 11 AUDIO
    TITLE "0:"
    INDEX 01 00:08:42
  TRACK 12 AUDIO
    TITLE "7:cjc094_2670"
    INDEX 01 00:09:12
  TRACK 13 AUDIO
    TITLE "0:"
    INDEX 01 00:10:06
  TRACK 14 AUDIO
    TITLE "8:cjc094_2671"
    INDEX 01 00:10:29
  TRACK 15 AUDIO
    TITLE "0:"
    INDEX 01 00:12:65
  TRACK 16 AUDIO
    TITLE "7:cjc094_2672"
    INDEX 01 00:13:33
  TRACK 17 AUDIO
    TITLE "0:"
    INDEX 01 00:14:41
  TRACK 18 AUDIO
    TITLE "8:cjc094_2673"
    INDEX 01 00:14:53
  TRACK 19 AUDIO
    TITLE "0:"
    INDEX 01 00:16:55
  TRACK 20 AUDIO
    TITLE "7:cjc094_2674"
    INDEX 01 00:17:27
  TRACK 21 AUDIO
    TITLE "0:"
    INDEX 01 00:18:35
  TRACK 22 AUDIO
    TITLE "8:cjc094_2675"
    INDEX 01 00:18:54
  TRACK 23 AUDIO
    TITLE "0:"
    INDEX 01 00:21:72
  TRACK 24 AUDIO
    TITLE "7:cjc094_2676"
    INDEX 01 00:22:42
  TRACK 25 AUDIO
    TITLE "0:"
    INDEX 01 00:23:32
  TRACK 26 AUDIO
    TITLE "8:cjc094_2677"
    INDEX 01 00:23:48
  TRACK 27 AUDIO
    TITLE "0:"
    INDEX 01 00:24:51
  TRACK 28 AUDIO
    TITLE "7:cjc094_2678"
    INDEX 01 00:25:15
  TRACK 29 AUDIO
    TITLE "0:"
    INDEX 01 00:26:18
  TRACK 30 AUDIO
    TITLE "8:cjc094_2679"
    INDEX 01 00:26:38
  TRACK 31 AUDIO
    TITLE "0:"
    INDEX 01 00:27:55
  TRACK 32 AUDIO
    TITLE "7:cjc094_2680"
    INDEX 01 00:28:27
  TRACK 33 AUDIO
    TITLE "0:"
    INDEX 01 00:29:29
  TRACK 34 AUDIO
    TITLE "8:cjc094_2681"
    INDEX 01 00:29:44
  TRACK 35 AUDIO
    TITLE "0:"
    INDEX 01 00:31:35
  TRACK 36 AUDIO
    TITLE "7:cjc094_2682"
    INDEX 01 00:32:11
  TRACK 37 AUDIO
    TITLE "0:"
    INDEX 01 00:33:09
  TRACK 38 AUDIO
    TITLE "8:cjc094_2683"
    INDEX 01 00:33:21
  TRACK 39 AUDIO
    TITLE "0:"
    INDEX 01 00:34:43
  TRACK 40 AUDIO
    TITLE "7:cjc094_2684"
    INDEX 01 00:35:17
  TRACK 41 AUDIO
    TITLE "0:"
    INDEX 01 00:36:19
  TRACK 42 AUDIO
    TITLE "8:cjc094_2685"
    INDEX 01 00:36:31
  TRACK 43 AUDIO
    TITLE "0:"
    INDEX 01 00:38:30
  TRACK 44 AUDIO
    TITLE "7:cjc094_2686"
    INDEX 01 00:38:73
  TRACK 45 AUDIO
    TITLE "0:"
    INDEX 01 00:40:05
  TRACK 46 AUDIO
    TITLE "8:cjc094_2687"
    INDEX 01 00:40:17
  TRACK 47 AUDIO
    TITLE "0:"
    INDEX 01 00:42:12
  TRACK 48 AUDIO
    TITLE "7:cjc094_2688"
    INDEX 01 00:42:57
  TRACK 49 AUDIO
    TITLE "0:"
    INDEX 01 00:43:60
  TRACK 50 AUDIO
    TITLE "8:cjc094_2689"
    INDEX 01 00:44:05
  TRACK 51 AUDIO
    TITLE "0:"
    INDEX 01 00:45:12
  TRACK 52 AUDIO
    TITLE "7:cjc094_2690"
    INDEX 01 00:45:51
  TRACK 53 AUDIO
    TITLE "0:"
    INDEX 01 00:46:62
  TRACK 54 AUDIO
    TITLE "8:cjc094_2691"
    INDEX 01 00:47:03
  TRACK 55 AUDIO
    TITLE "0:"
    INDEX 01 00:48:49
  TRACK 56 AUDIO
    TITLE "7:cjc094_2692"
    INDEX 01 00:49:21
  TRACK 57 AUDIO
    TITLE "0:"
    INDEX 01 00:50:25
  TRACK 58 AUDIO
    TITLE "8:cjc094_2693"
    INDEX 01 00:50:37
  TRACK 59 AUDIO
    TITLE "0:"
    INDEX 01 00:51:36
